<svg id="Capa_1" data-name="Capa 1" xmlns="http://www.w3.org/2000/svg" xmlns:xlink="http://www.w3.org/1999/xlink" viewBox="0 0 276.31 276.32"><defs><style>.cls-1{fill:none;}.cls-2{clip-path:url(#clip-path);}.cls-3{fill:#509cb2;}</style><clipPath id="clip-path" transform="translate(-12.28 -11.68)"><rect class="cls-1" x="11.8" y="11.68" width="276.32" height="276.32"/></clipPath></defs><title>icon_2</title><g class="cls-2"><path class="cls-3" d="M257.6,175l-1.42.76c-5.73-7-15.67-9.65-23.23-5.82l-.08,0-3.35,1.81a25.46,25.46,0,0,0-29.14-2.64l-18,9.82h-24a34.72,34.72,0,0,1-15-3.45L140,174a56.67,56.67,0,0,0-59,5.76l-.23.18-8,7.11a27.72,27.72,0,0,1-10.44,5.81L57.87,178a3.59,3.59,0,0,0-3.43-2.55H15.87a3.58,3.58,0,0,0-3.56,4L25.16,284.85A3.6,3.6,0,0,0,28.73,288H86.57A3.6,3.6,0,0,0,90,283.36l-7.6-24.93,23.67-15a14.24,14.24,0,0,1,10.39-1.35l.22,0L164.83,251a62.34,62.34,0,0,0,38.5-5.44,2.82,2.82,0,0,0,.44-.26L287,188.17a3.59,3.59,0,0,0,1-4.81A22.85,22.85,0,0,0,257.6,175m-21.37,1.33c4.38-2.2,9.89-.4,13.41,3l-31.58,17-1.86,1a26.89,26.89,0,0,0-4.32-7.85Zm-32.38-.89.09-.05a18.25,18.25,0,0,1,18.57.18l-16.06,8.64a27.5,27.5,0,0,0-10.25-4.62ZM31.9,280.82l-12-98.23H51.78l30,98.23Zm168-41.55a55,55,0,0,1-33.79,4.7l-48-8.84a21.37,21.37,0,0,0-15.6,2.11l-.17.1-22.09,14L64.5,199.7a34.92,34.92,0,0,0,13.11-7.34l7.86-7a49.51,49.51,0,0,1,51.41-4.94l3.3,1.6a42,42,0,0,0,18.14,4.15h32a20.24,20.24,0,0,1,19.86,16.45L187,201.57a138.51,138.51,0,0,0-25.26,1.17,3.59,3.59,0,0,0,1,7.11,131.47,131.47,0,0,1,24-1.11L214,210h.17a3.58,3.58,0,0,0,3.58-3.59c0-.58,0-1.15-.05-1.73l3.74-2L261,181.34a15.7,15.7,0,0,1,18.88,3Z" transform="translate(-12.28 -11.68)"/></g><path class="cls-3" d="M43.32,266a11.3,11.3,0,1,0,11.3-11.31A11.3,11.3,0,0,0,43.32,266m11.3-4.13A4.13,4.13,0,1,1,50.5,266a4.12,4.12,0,0,1,4.12-4.13Z" transform="translate(-12.28 -11.68)"/><path class="cls-3" d="M177.73,50.63V38.8a27.25,27.25,0,0,0-54.5,0V50.63a27.25,27.25,0,0,0,54.5,0m-47.31,0V38.8a20.07,20.07,0,0,1,40.14,0V50.63a20.07,20.07,0,0,1-40.14,0" transform="translate(-12.28 -11.68)"/><path class="cls-3" d="M106.56,151.82h87.85a3.59,3.59,0,0,0,3.59-3.59V140h60.14a3.58,3.58,0,0,0,3.59-3.59V113.1a26.91,26.91,0,0,0-25.2-26.84c-1.91-.14-2.89,1.07-3.69,2a16.49,16.49,0,0,1-26-.64,3.57,3.57,0,0,0-3-1.45,26.56,26.56,0,0,0-13.21,3.85A30.16,30.16,0,0,0,169.6,79.62c-1.85-.07-2.8,1-3.7,2.16A19.33,19.33,0,0,1,135.4,81a3.61,3.61,0,0,0-3-1.46,30.08,30.08,0,0,0-20.85,9.1c-.46.46-.89,1-1.3,1.43A26.71,26.71,0,0,0,98,86.26c-1.92-.14-2.9,1.07-3.7,2a16.49,16.49,0,0,1-26-.64,3.57,3.57,0,0,0-3-1.45A26.9,26.9,0,0,0,39.14,113.1v23.3A3.59,3.59,0,0,0,42.73,140H103v8.24a3.59,3.59,0,0,0,3.59,3.59m95.77-58.31a23.66,23.66,0,0,0,35.43.09,19.74,19.74,0,0,1,16.79,19.5v19.71H198v-23A30.1,30.1,0,0,0,194.69,96a19.39,19.39,0,0,1,7.64-2.53m-71.46-6.64a26.52,26.52,0,0,0,40,.09,23.06,23.06,0,0,1,19.9,22.82v34.86H110.15V109.78a23.18,23.18,0,0,1,20.72-22.91M46.33,132.81V113.1a19.85,19.85,0,0,1,17.5-19.59,23.65,23.65,0,0,0,35.42.09,19.6,19.6,0,0,1,7,2.47A30.13,30.13,0,0,0,103,109.78v23Z" transform="translate(-12.28 -11.68)"/><path class="cls-3" d="M244,61.33V51a24.3,24.3,0,0,0-48.6,0V61.33a24.3,24.3,0,0,0,48.6,0m-41.42,0V51a17.12,17.12,0,0,1,34.24,0V61.33a17.12,17.12,0,0,1-34.24,0" transform="translate(-12.28 -11.68)"/><path class="cls-3" d="M105.48,61.33V51a24.3,24.3,0,0,0-48.6,0V61.33a24.3,24.3,0,0,0,48.6,0m-41.42,0V51A17.12,17.12,0,1,1,98.3,51V61.33a17.12,17.12,0,1,1-34.24,0" transform="translate(-12.28 -11.68)"/></svg>